PathFileType   4   (X/Y/Z)																																																																																																																							
DataRate	CameraRate	NumFrames	NumMarkers	Units	OrigDataRate	OrigDataStartFrame	OrigNumFrames																																																																																																																
120	120	4	37	mm	120	118	156																																																																																																																
Frame#	Time	Sternum	R.Acromium	L.Acromium	Top.Head	R.ASIS	L.ASIS	V.Sacral	R.Thigh.Upper	R.Thigh.Front	R.Thigh.Rear	R.Knee.Lat	R.Knee.Med	R.Shank.Upper	R.Shank.Front	R.Shank.Rear	R.Ankle.Lat	R.Ankle.Med	R.Heel	R.Midfoot.Sup	R.Midfoot.Lat	R.Toe.Lat	R.Toe.Med	R.Toe.Tip	L.Thigh.Upper	L.Thigh.Front	L.Thigh.Rear	L.Knee.Lat	L.Knee.Med	L.Shank.Upper	L.Shank.Front	L.Shank.Rear	L.Ankle.Lat	L.Ankle.Med	L.Heel	L.Midfoot.Sup	L.Midfoot.Lat	L.Toe.Lat	L.Toe.Med	L.Toe.Tip																																																																															
 	 	X1	Y1	Z1	X2	Y2	Z2	X3	Y3	Z3	X4	Y4	Z4	X5	Y5	Z5	X6	Y6	Z6	X7	Y7	Z7	X8	Y8	Z8	X9	Y9	Z9	X10	Y10	Z10	X11	Y11	Z11	X12	Y12	Z12	X13	Y13	Z13	X14	Y14	Z14	X15	Y15	Z15	X16	Y16	Z16	X17	Y17	Z17	X18	Y18	Z18	X19	Y19	Z19	X20	Y20	Z20	X21	Y21	Z21	X22	Y22	Z22	X23	Y23	Z23	X24	Y24	Z24	X25	Y25	Z25	X26	Y26	Z26	X27	Y27	Z27	X28	Y28	Z28	X29	Y29	Z29	X30	Y30	Z30	X31	Y31	Z31	X32	Y32	Z32	X33	Y33	Z33	X34	Y34	Z34	X35	Y35	Z35	X36	Y36	Z36	X37	Y37	Z37	X38	Y38	Z38	X39	Y39	Z39	
																																																																																																																							
	118	1.19167	-1428.840316	-0.001002095	1361.270849	-1489.806773	-161.9453511	1440.792859	-1487.176463	165.1979949	1439.989882	-1343.977661	-10.08809499	1640.85378	-1466.692714	-117.7896216	1026.439398	-1460.380589	119.399185	1019.572566	-1642.7894	-5.611229398	1013.690636	-1475.569314	-173.4115572	685.7780811	-1409.310083	-67.95180237	620.4011399	-1482.025786	-162.9734513	551.6254056	-1522.174927	-142.5943975	455.3253979	-1523.395586	-8.355853302	436.7966957	-1559.72144	-154.6508593	423.7420999	-1480.504282	-93.81404015	375.9237065	-1552.051587	-165.0122006	327.2028648	-1582.931609	-136.9768135	9.779047134	-1572.586294	-37.22329306	24.99801528	-1653.94768	-79.10633289	-17.45966139	-1502.098096	-41.71858376	-4.916048728	-1507.601771	-155.3841374	-25.85973535	-1412.65872	-165.0174344	-50.95374476	-1410.2343	-50.15543807	-37.0979735	-1345.689311	-83.79364801	-36.38680733	-1436.233607	178.8034865	719.1909655	-1339.834645	95.03600439	700.9082142	-1410.946835	161.7547942	601.0326517	-1396.313335	144.5366564	454.9706861	-1395.251684	15.87918741	456.124641	-1441.304822	162.4477689	430.2525317	-1424.528344	100.5194763	357.6677786	-1481.217915	174.5177999	397.0617461	-1631.632119	136.4325857	79.73800147	-1615.234867	34.31683281	100.4588881	-1716.020231	76.11439987	91.67529036	-1544.539178	48.15109198	28.97682391	-1562.726935	152.6198727	35.94003986	-1508.951214	163.716336	-11.0112055	-1492.099856	55.50675189	-17.48572948	-1443.116379	82.30973808	-35.29777962
	119	1.2	-1424.013218	-0.001002095	1361.113141	-1484.931631	-161.9453511	1440.671961	-1482.301807	165.1979949	1439.867395	-1338.981707	-10.08809499	1640.644763	-1462.053881	-117.7896216	1026.357002	-1455.742782	119.399185	1019.489227	-1638.15247	-5.611229398	1013.634556	-1472.738017	-173.4115572	685.2164903	-1406.966709	-67.95180237	619.3487048	-1480.191764	-162.9734513	551.1155283	-1521.055806	-142.5943975	455.1166999	-1522.414197	-8.355853302	436.5975857	-1558.623067	-154.6508593	423.699322	-1479.570122	-93.81404015	375.609938	-1551.283847	-165.0122006	327.1343884	-1583.250673	-136.9768135	9.818177234	-1572.853303	-37.22329306	25.00162968	-1654.26367	-79.10633289	-17.44475669	-1502.41494	-41.71858376	-4.890807947	-1507.917189	-155.3841374	-25.83486915	-1412.97243	-165.0174344	-50.9224159	-1410.548953	-50.15543807	-37.06647965	-1346.004013	-83.79364801	-36.35092002	-1430.020957	178.8034865	719.9409909	-1333.484533	95.03600439	702.3985357	-1403.828193	161.7547942	601.9802049	-1388.074255	144.5366564	456.0348364	-1387.021491	15.87918741	457.1969043	-1431.618549	162.4477689	430.5263961	-1412.816224	100.5194763	358.4398567	-1470.586626	174.5177999	396.2310294	-1612.056561	136.4325857	74.82000117	-1596.245938	34.31683281	95.99189801	-1696.800531	76.11439987	83.89910741	-1523.279972	48.15109198	27.08832627	-1541.694734	152.6198727	33.42689554	-1486.348284	163.716336	-11.66210634	-1469.285818	55.50675189	-17.55786802	-1419.723092	82.30973808	-33.68816072
	120	1.20833	-1419.157878	-0.001002095	1360.922935	-1480.027695	-161.9453511	1440.518942	-1477.398363	165.1979949	1439.71277	-1333.955682	-10.08809499	1640.402579	-1457.390523	-117.7896216	1026.236696	-1451.08084	119.399185	1019.36762	-1633.491732	-5.611229398	1013.550569	-1469.884532	-173.4115572	684.6364511	-1404.602882	-67.95180237	618.283333	-1478.331301	-162.9734513	550.594374	-1519.905245	-142.5943975	454.9008408	-1521.400761	-8.355853302	436.3922956	-1557.494117	-154.6508593	423.649562	-1478.607886	-93.81404015	375.2871856	-1550.488758	-165.0122006	327.0598343	-1583.552331	-136.9768135	9.856025957	-1573.102534	-37.22329306	25.0034448	-1654.562089	-79.10633289	-17.43192158	-1502.714313	-41.71858376	-4.866439484	-1508.214972	-155.3841374	-25.81091854	-1413.268308	-165.0174344	-50.89125386	-1410.845882	-50.15543807	-37.03513358	-1346.300997	-83.79364801	-36.31467157	-1423.872947	178.8034865	720.6285936	-1327.211051	95.03600439	703.7912304	-1396.819878	161.7547942	602.8621323	-1380.001097	144.5366564	457.0356404	-1378.956843	15.87918741	458.2053616	-1422.031685	162.4477689	430.7808228	-1401.181895	100.5194763	359.2596172	-1460.0062	174.5177999	395.3884591	-1592.255561	136.4325857	70.07492096	-1577.054952	34.31683281	91.68895558	-1677.258124	76.11439987	76.28925859	-1501.904056	48.15109198	25.41883489	-1520.523936	152.6198727	31.12680797	-1463.674536	163.716336	-12.05181292	-1446.421243	55.50675189	-17.36327337	-1396.338099	82.30973808	-31.79687611
	121	1.21667	-1414.265866	-0.001002095	1360.699792	-1475.086207	-161.9453511	1440.33361	-1472.457376	165.1979949	1439.525804	-1328.890006	-10.08809499	1640.126433	-1452.6952	-117.7896216	1026.079652	-1446.387266	119.399185	1019.20897	-1628.799633	-5.611229398	1013.438356	-1467.00078	-173.4115572	684.038281	-1402.21055	-67.95180237	617.2052331	-1476.436463	-162.9734513	550.0621852	-1518.715431	-142.5943975	454.6780463	-1520.347487	-8.355853302	436.181041	-1556.327983	-154.6508593	423.5937115	-1477.612083	-93.81404015	374.9545913	-1549.661883	-165.0122006	326.9799772	-1583.839246	-136.9768135	9.89424159	-1573.336317	-37.22329306	25.00486818	-1654.845532	-79.10633289	-17.4198148	-1502.99884	-41.71858376	-4.841240464	-1508.497693	-155.3841374	-25.78619371	-1413.548866	-165.0174344	-50.85834265	-1411.127636	-50.15543807	-37.00201357	-1346.582813	-83.79364801	-36.2759865	-1417.781118	178.8034865	721.2522267	-1321.005004	95.03600439	705.0842712	-1389.913627	161.7547942	603.6758225	-1372.085972	144.5366564	457.9692273	-1371.049838	15.87918741	459.1461479	-1412.540285	162.4477689	431.0167035	-1389.62854	100.5194763	360.1291267	-1449.474195	174.5177999	394.5397313	-1572.24958	136.4325857	65.533658	-1557.681117	34.31683281	87.57872276	-1657.413329	76.11439987	68.88693439	-1480.436223	48.15109198	23.98756465	-1499.238825	152.6198727	29.06132857	-1440.95897	163.716336	-12.16616497	-1423.535607	55.50675189	-16.8899505	-1372.992144	82.30973808	-29.61820628
